35 Movies of the beloved Thanasis Veggos who will always live in our hearts.

35 Ï„Î±Î¹Î½Î¯ÎµÏ‚ Ï„Î¿Ï… Î±Î³Î±Ï€Î·Î¼Î­Î½Î¿Ï… Î¼Î±Ï‚ Î˜Î±Î½Î¬ÏƒÎ· Î’Î­Î³Î³Î¿Ï… Ï€Î¿Ï… Î¸Î± Î¶ÎµÎ¹ ÏƒÏ„Î¹Ï‚ ÎºÎ±ÏÎ´Î¹Î­Ï‚ Î¼Î±Ï‚ Î³Î¹Î± Ï€Î¬Î½Ï„Î±.

1-DR_ZIBEÎ“Î“ÎŸÎ£
2-Î”Î™Î‘ÎšÎŸÎ Î•Î£ Î£Î¤ÎŸ Î’Î™Î•Î¤ÎÎ‘Îœ
3-Î”Î™Î”Î‘ÎšÎ¤ÎŸÎ¡ ÎšÎ‘Î›Î•Î™ Î˜Î‘ÎÎ‘Î£Î—
4-Î”ÎŸÎ¥Î›Î•Î™Î•Î£ Î¤ÎŸÎ¥ Î ÎŸÎ”Î‘Î¡Î™ÎŸÎ¥
5-Î•ÎÎ‘ Î‘Î£Î¥Î›Î—Î Î¤ÎŸ ÎšÎŸÎ¡ÎŸÎ™Î”ÎŸ
6-Î•ÎÎ‘Î£ Î’Î•Î“Î“ÎŸÎ£ Î“Î™Î‘ ÎŸÎ›Î•Î£ Î¤Î™Î£ Î”ÎŸÎ¥Î›Î•Î™Î•Î£
7-Î•ÎÎ‘Î£ Î¤Î¡Î•Î›Î›ÎŸÎ£ Î¤Î¡Î•Î›Î›ÎŸÎ£ Î’Î•Î“Î“ÎŸÎ£
8-Î•ÎžÎ© Î¦Î¤Î©Î§Î™Î‘
9-Î— ÎÎ¥Î¦Î— Î¤ÎŸ Î•Î£ÎšÎ‘Î£Î•
10--8ANASH_PARE_TO_OPLO_SOY
11-Î˜Î‘ÎÎ‘Î£Î— Î£Î¦Î™ÎžÎ• ÎšÎ™ Î‘Î›Î›ÎŸ Î¤ÎŸ Î–Î©ÎÎ‘Î¡Î™
12-Î˜Î’ Î•Î Î™Î§Î•Î™Î¡Î—Î£Î— Î“Î—Î£ ÎœÎ‘Î”Î™Î‘Îœ
13-Î˜Î’ Î¦Î‘Î›Î‘ÎšÎ¡ÎŸÎ£ Î Î¡Î‘ÎšÎ¤ÎŸÎ¡
14-ÎœÎ—Î Î•Î™Î”Î‘Î¤Î• Î¤ÎŸÎ Î Î‘ÎÎ‘Î—
15-ÎŸ Î—Î›Î™Î‘Î£ Î¤ÎŸÎ¥ 16ÎŸÎ¥
16-ÎŸ Î˜Î‘ÎÎ‘Î£Î—Î£ Î— Î™ÎŸÎ¥Î›Î™Î•Î¤Î‘ ÎšÎ‘Î™ Î¤Î‘ Î›ÎŸÎ¥ÎšÎ‘ÎÎ™ÎšÎ‘
17-ÎŸ Î˜Î‘ÎÎ‘Î£Î—Î£ Î£Î¤Î—Î Î§Î©Î¡Î‘ Î¤Î—Î£ Î£Î¦Î‘Î›Î™Î‘Î¡Î‘Î£
18-ÎŸ Î˜Î•Î™ÎŸÎ£ Î‘Î ÎŸ Î¤ÎŸÎ ÎšÎ‘ÎÎ‘Î”Î‘
19-ÎŸ ÎšÎ‘Î¤Î‘Î¦Î•Î¡Î¤Î–Î—Î£
20-ÎŸ ÎœÎ—Î¤Î¡ÎŸÎ£ ÎšÎ‘Î™ ÎŸ ÎœÎ—Î¤Î¡ÎŸÎ¥Î£Î—Î£
21-ÎŸ Î Î‘Î›Î‘Î’ÎŸÎ£ ÎšÎŸÎ£ÎœÎŸÎ£ Î¤ÎŸÎ¥ Î˜Î‘ÎÎ‘Î£Î—
22-ÎŸ Î Î‘Î Î‘Î¤Î¡Î•Î§Î‘Î£
23-ÎŸÎ™ 900 Î¤Î—Î£ ÎœÎ‘Î¡Î™ÎÎ‘Î£
24-ÎŸÎ™ÎšÎŸÎ“Î•ÎÎ•Î™Î‘ Î Î‘Î Î‘Î”ÎŸÎ ÎŸÎ¥Î›ÎŸÎ¥
25-Î Î‘Î¡Î• ÎšÎŸÎ£ÎœÎ•
26-Î ÎŸÎ™ÎŸÎ£ Î˜Î‘ÎÎ‘Î£Î—Î£
27-Î ÎŸÎ›Î¥Î¤Î•Î§ÎÎ™Î¤Î—Î£ ÎšÎ‘Î™ Î•Î¡Î—ÎœÎŸÎ£Î Î™Î¤Î—Î£
28-Î£Î§ÎŸÎ›Î— Î“Î™Î‘ Î£Î©Î¦Î•Î¡Î™ÎÎ•Î£
29-Î¤Î™ Î•ÎšÎ‘ÎÎ•Î£ Î£Î¤ÎŸÎ Î ÎŸÎ›Î•ÎœÎŸ Î˜Î‘ÎÎ‘Î£Î—
30-Î¤ÎŸ Î”Î¥Î”Î™ÎœÎŸ Î¤Î—Î£ Î£Î¥ÎœÎ¦Î©Î¡Î‘Î£
31-Î¤ÎŸ Î¤Î¥Î§Î•Î¡ÎŸ Î Î‘ÎÎ¤Î•Î›ÎŸÎÎ™
32-Î¤Î¡Î•Î›Î›ÎŸÎ£ ÎšÎ‘Î™ Î Î‘Î£Î—Î£ Î•Î›Î›Î‘Î”ÎŸÎ£
33-Î¤Î¡Î•Î›Î›ÎŸÎ£ Î Î‘Î›Î‘Î’ÎŸÎ£ ÎšÎ‘Î™ Î’Î•Î“Î“ÎŸÎ£
34-Î¤Î¥Î¦Î›Î‘ ÎÎ‘ Î•Î§Î•Î™ MARLON BRANDO
35-Î¨Î—Î›Î‘ Î¤Î‘ Î§Î•Î¡Î™Î‘ Î§Î™Î¤Î›Î•Î¡


Technical Specifications:

1-DR_ZIBEÎ“Î“ÎŸÎ£

Format                           : MPEG-4 Visual
Format profile                   : Simple@L3
Format settings, BVOP            : No
Format settings, QPel            : No
Format settings, GMC             : No warppoints
Format settings, Matrix          : Default
Codec ID                         : XVID
Codec ID/Hint                    : XviD
Duration                         : 1h 13mn
Bit rate                         : 2 016 Kbps
Width                            : 720 pixels
Height                           : 552 pixels
Display aspect ratio             : 4/3
Frame rate                       : 25.000 fps
Resolution                       : 24 bits
Colorimetry                      : 4:2:0
Scan type                        : Progressive
Bits/(Pixel*Frame)               : 0.203
Stream size                      : 1.04 GiB (96%)
Writing library                  : XviD 1.1.2 (UTC 2006-11-01)

Audio
Format                           : MPEG Audio
Format version                   : Version 1
Format profile                   : Layer 3
Codec ID                         : 55
Codec ID/Hint                    : MP3
Duration                         : 1h 13mn
Bit rate mode                    : Constant
Bit rate                         : 64.0 Kbps
Channel(s)                       : 2 channels
Sampling rate                    : 48.0 KHz
Resolution                       : 16 bits
Stream size                      : 33.7 MiB (3%)
Alignment                        : Aligned on interleaves
Interleave, duration             : 24 ms (0.60 video frame)


2-Î”Î™Î‘ÎšÎŸÎ Î•Î£ Î£Î¤ÎŸ Î’Î™Î•Î¤ÎÎ‘Îœ

Format                           : MPEG-4 Visual
Format profile                   : Streaming Video@L1
Format settings, BVOP            : Yes
Format settings, QPel            : No
Format settings, GMC             : No warppoints
Format settings, Matrix          : Custom
Codec ID                         : XVID
Codec ID/Hint                    : XviD
Duration                         : 1h 20mn
Bit rate                         : 1 102 Kbps
Width                            : 640 pixels
Height                           : 480 pixels
Display aspect ratio             : 4/3
Frame rate                       : 25.000 fps
Resolution                       : 24 bits
Colorimetry                      : 4:2:0
Scan type                        : Progressive
Bits/(Pixel*Frame)               : 0.144
Stream size                      : 636 MiB (71%)
Writing library                  : XviD 1.1.2 (UTC 2006-11-01)

Audio
Format                           : AC-3
Format/Info                      : Audio Coding 3
Codec ID                         : 2000
Duration                         : 1h 20mn
Bit rate mode                    : Constant
Bit rate                         : 448 Kbps
Channel(s)                       : 2 channels
Channel positions                : L R
Sampling rate                    : 48.0 KHz
Stream size                      : 259 MiB (29%)
Alignment                        : Aligned on interleaves
Interleave, duration             : 96 ms (2.40 video frames)
Interleave, preload duration     : 96 ms

3-Î”Î™Î”Î‘ÎšÎ¤ÎŸÎ¡ ÎšÎ‘Î›Î•Î™ Î˜Î‘ÎÎ‘Î£Î—

Format                           : MPEG-4 Visual
Format profile                   : Simple@L1
Format settings, BVOP            : No
Format settings, QPel            : No
Format settings, GMC             : No warppoints
Format settings, Matrix          : Default
Codec ID                         : DIVX
Codec ID/Info                    : Project Mayo
Codec ID/Hint                    : DivX 4
Duration                         : 1h 18mn
Bit rate                         : 585 Kbps
Width                            : 320 pixels
Height                           : 240 pixels
Display aspect ratio             : 4/3
Frame rate                       : 25.000 fps
Resolution                       : 24 bits
Colorimetry                      : 4:2:0
Scan type                        : Progressive
Bits/(Pixel*Frame)               : 0.305
Stream size                      : 331 MiB (81%)
Writing library                  : Lavc51.38.0

Audio
Format                           : MPEG Audio
Format version                   : Version 1
Format profile                   : Layer 3
Codec ID                         : 55
Codec ID/Hint                    : MP3
Duration                         : 1h 18mn
Bit rate mode                    : Constant
Bit rate                         : 128 Kbps
Channel(s)                       : 2 channels
Sampling rate                    : 44.1 KHz
Resolution                       : 16 bits
Stream size                      : 72.3 MiB (18%)
Alignment                        : Split accross interleaves
Interleave, duration             : 40 ms (1.00 video frame)
Interleave, preload duration     : 500 ms

4-Î”ÎŸÎ¥Î›Î•Î™Î•Î£ Î¤ÎŸÎ¥ Î ÎŸÎ”Î‘Î¡Î™ÎŸÎ¥


Format                           : MPEG-4 Visual
Format profile                   : Simple@L3
Format settings, BVOP            : Yes
Format settings, QPel            : No
Format settings, GMC             : No warppoints
Format settings, Matrix          : Custom
Codec ID                         : XVID
Codec ID/Hint                    : XviD
Duration                         : 1h 17mn
Bit rate                         : 1 415 Kbps
Width                            : 640 pixels
Height                           : 480 pixels
Display aspect ratio             : 4/3
Frame rate                       : 25.000 fps
Resolution                       : 24 bits
Colorimetry                      : 4:2:0
Scan type                        : Progressive
Bits/(Pixel*Frame)               : 0.184
Stream size                      : 788 MiB (88%)
Writing library                  : XviD 1.0.1 (UTC 2004-06-05)

Audio
Format                           : AC-3
Format/Info                      : Audio Coding 3
Codec ID                         : 2000
Duration                         : 1h 17mn
Bit rate mode                    : Constant
Bit rate                         : 192 Kbps
Channel(s)                       : 2 channels
Channel positions                : L R
Sampling rate                    : 48.0 KHz
Stream size                      : 107 MiB (12%)
Alignment                        : Aligned on interleaves
Interleave, duration             : 96 ms (2.40 video frames)
Interleave, preload duration     : 96 ms

5-Î•ÎÎ‘ Î‘Î£Î¥Î›Î—Î Î¤ÎŸ ÎšÎŸÎ¡ÎŸÎ™Î”ÎŸ

Format                           : MPEG-4 Visual
Format profile                   : Simple@L3
Format settings, BVOP            : No
Format settings, QPel            : No
Format settings, GMC             : No warppoints
Format settings, Matrix          : Default
Codec ID                         : XVID
Codec ID/Hint                    : XviD
Duration                         : 1h 21mn
Bit rate                         : 2 014 Kbps
Width                            : 720 pixels
Height                           : 560 pixels
Display aspect ratio             : 1.286
Frame rate                       : 25.000 fps
Resolution                       : 24 bits
Colorimetry                      : 4:2:0
Scan type                        : Progressive
Bits/(Pixel*Frame)               : 0.200
Stream size                      : 1.15 GiB (96%)
Writing library                  : XviD 1.1.2 (UTC 2006-11-01)

Audio
Format                           : MPEG Audio
Format version                   : Version 1
Format profile                   : Layer 3
Codec ID                         : 55
Codec ID/Hint                    : MP3
Duration                         : 1h 21mn
Bit rate mode                    : Constant
Bit rate                         : 64.0 Kbps
Channel(s)                       : 2 channels
Sampling rate                    : 48.0 KHz
Resolution                       : 16 bits
Stream size                      : 37.4 MiB (3%)
Alignment                        : Aligned on interleaves
Interleave, duration             : 24 ms (0.60 video frame)

6-Î•ÎÎ‘Î£ Î’Î•Î“Î“ÎŸÎ£ Î“Î™Î‘ ÎŸÎ›Î•Î£ Î¤Î™Î£ Î”ÎŸÎ¥Î›Î•Î™Î•Î£

Format                           : AVC
Format/Info                      : Advanced Video Codec
Format profile                   : High@L5.1
Format settings, CABAC           : Yes
Format settings, ReFrames        : 3 frames
Muxing mode                      : Container profile=Unknown@5.1
Codec ID                         : V_MPEG4/ISO/AVC
Duration                         : 1h 18mn
Nominal bit rate                 : 664 Kbps
Width                            : 576 pixels
Height                           : 432 pixels
Display aspect ratio             : 4/3
Frame rate                       : 25.000 fps
Resolution                       : 24 bits
Colorimetry                      : 4:2:0
Scan type                        : Progressive
Bits/(Pixel*Frame)               : 0.107
Writing library                  : x264 core 60 r900 a9af942
Encoding settings                : cabac=1 / ref=3 / deblock=1:-2:-1 / analyse=0x3:0x113 / me=umh / subme=6 / brdo=0 / mixed_ref=0 / me_range=12 / chroma_me=1 / trellis=1 / 8x8dct=1 / cqm=0 / deadzone=21,11 / chroma_qp_offset=0 / threads=6 / nr=0 / decimate=1 / mbaff=0 / bframes=16 / b_pyramid=1 / b_adapt=1 / b_bias=0 / direct=3 / wpredb=1 / bime=0 / keyint=250 / keyint_min=25 / scenecut=40(pre) / rc=2pass / bitrate=664 / ratetol=1.0 / rceq='blurCplx^(1-qComp)' / qcomp=1.00 / qpmin=10 / qpmax=51 / qpstep=4 / cplxblur=20.0 / qblur=0.5 / ip_ratio=1.40 / pb_ratio=1.30 / aq=2:1.00

Audio
Format                           : AAC
Format/Info                      : Advanced Audio Codec
Format version                   : Version 4
Format profile                   : LC
Format settings, SBR             : Yes
Format settings, PS              : No
Codec ID                         : A_AAC
Duration                         : 1h 18mn
Channel(s)                       : 2 channels
Channel positions                : L R
Sampling rate                    : 48.0 KHz
Resolution                       : 16 bits
Title                            : Greek
Language                         : Greek


7-Î•ÎÎ‘Î£ Î¤Î¡Î•Î›Î›ÎŸÎ£ Î¤Î¡Î•Î›Î›ÎŸÎ£ Î’Î•Î“Î“ÎŸÎ£


Format                           : MPEG-4 Visual
Format profile                   : Streaming Video@L1
Format settings, BVOP            : Yes
Format settings, QPel            : No
Format settings, GMC             : No warppoints
Format settings, Matrix          : Custom
Codec ID                         : XVID
Codec ID/Hint                    : XviD
Duration                         : 1h 17mn
Bit rate                         : 1 717 Kbps
Width                            : 640 pixels
Height                           : 480 pixels
Display aspect ratio             : 4/3
Frame rate                       : 25.000 fps
Resolution                       : 24 bits
Colorimetry                      : 4:2:0
Scan type                        : Progressive
Bits/(Pixel*Frame)               : 0.224
Stream size                      : 948 MiB (79%)
Writing library                  : XviD 1.1.2 (UTC 2006-11-01)

Audio
Format                           : AC-3
Format/Info                      : Audio Coding 3
Codec ID                         : 2000
Duration                         : 1h 17mn
Bit rate mode                    : Constant
Bit rate                         : 448 Kbps
Channel(s)                       : 2 channels
Channel positions                : L R
Sampling rate                    : 48.0 KHz
Stream size                      : 247 MiB (21%)
Alignment                        : Aligned on interleaves
Interleave, duration             : 96 ms (2.40 video frames)
Interleave, preload duration     : 96 ms

8-Î•ÎžÎ© Î¦Î¤Î©Î§Î™Î‘

Format                           : MPEG-4 Visual
Format profile                   : Simple@L3
Format settings, BVOP            : No
Format settings, QPel            : No
Format settings, GMC             : No warppoints
Format settings, Matrix          : Default
Codec ID                         : XVID
Codec ID/Hint                    : XviD
Duration                         : 1h 25mn
Bit rate                         : 2 014 Kbps
Width                            : 720 pixels
Height                           : 560 pixels
Display aspect ratio             : 1.286
Frame rate                       : 25.000 fps
Resolution                       : 24 bits
Colorimetry                      : 4:2:0
Scan type                        : Progressive
Bits/(Pixel*Frame)               : 0.200
Stream size                      : 1.21 GiB (96%)
Writing library                  : XviD 1.1.2 (UTC 2006-11-01)

Audio
Format                           : MPEG Audio
Format version                   : Version 1
Format profile                   : Layer 3
Codec ID                         : 55
Codec ID/Hint                    : MP3
Duration                         : 1h 25mn
Bit rate mode                    : Constant
Bit rate                         : 64.0 Kbps
Channel(s)                       : 2 channels
Sampling rate                    : 48.0 KHz
Resolution                       : 16 bits
Stream size                      : 39.3 MiB (3%)
Alignment                        : Aligned on interleaves
Interleave, duration             : 24 ms (0.60 video frame)

9-Î— ÎÎ¥Î¦Î— Î¤ÎŸ Î•Î£ÎšÎ‘Î£Î•


Video
Format                           : MPEG-4 Visual
Format profile                   : Streaming Video@L1
Format settings, BVOP            : Yes
Format settings, QPel            : No
Format settings, GMC             : No warppoints
Format settings, Matrix          : Custom
Codec ID                         : XVID
Codec ID/Hint                    : XviD
Duration                         : 1h 15mn
Bit rate                         : 1 467 Kbps
Width                            : 640 pixels
Height                           : 480 pixels
Display aspect ratio             : 4/3
Frame rate                       : 25.000 fps
Resolution                       : 24 bits
Colorimetry                      : 4:2:0
Scan type                        : Progressive
Bits/(Pixel*Frame)               : 0.191
Stream size                      : 792 MiB (88%)
Writing library                  : XviD 1.1.2 (UTC 2006-11-01)

Audio
Format                           : AC-3
Format/Info                      : Audio Coding 3
Codec ID                         : 2000
Duration                         : 1h 15mn
Bit rate mode                    : Constant
Bit rate                         : 192 Kbps
Channel(s)                       : 2 channels
Channel positions                : L R
Sampling rate                    : 48.0 KHz
Stream size                      : 104 MiB (12%)
Alignment                        : Aligned on interleaves
Interleave, duration             : 96 ms (2.40 video frames)
Interleave, preload duration     : 96 ms


10--8ANASH_PARE_TO_OPLO_SOY


Format                           : MPEG-4 Visual
Format settings, BVOP            : No
Format settings, QPel            : No
Format settings, GMC             : No warppoints
Format settings, Matrix          : Default
Codec ID                         : DX50
Codec ID/Hint                    : DivX 5
Duration                         : 1h 22mn
Bit rate                         : 1 060 Kbps
Width                            : 384 pixels
Height                           : 272 pixels
Display aspect ratio             : 1.412
Frame rate                       : 25.000 fps
Resolution                       : 24 bits
Colorimetry                      : 4:2:0
Scan type                        : Progressive
Bits/(Pixel*Frame)               : 0.406
Stream size                      : 624 MiB (91%)
Writing library                  : DivX 5.0.3 (UTC 2003-01-24)

Audio
Format                           : MPEG Audio
Format version                   : Version 1
Format profile                   : Layer 3
Codec ID                         : 55
Codec ID/Hint                    : MP3
Duration                         : 1h 22mn
Bit rate mode                    : Constant
Bit rate                         : 96.0 Kbps
Channel(s)                       : 2 channels
Sampling rate                    : 44.1 KHz
Resolution                       : 16 bits
Video delay                      : 26ms
Stream size                      : 56.5 MiB (8%)
Alignment                        : Split accross interleaves
Interleave, duration             : 40 ms (1.00 video frame)
Interleave, preload duration     : 500 ms



11-Î˜Î‘ÎÎ‘Î£Î— Î£Î¦Î™ÎžÎ• ÎšÎ™ Î‘Î›Î›ÎŸ Î¤ÎŸ Î–Î©ÎÎ‘Î¡Î™ 

Format                           : S-Mpeg 4 v3
Codec ID                         : MP43
Codec ID/Info                    : Microsoft MPEG-4 V3
Duration                         : 1h 32mn
Bit rate                         : 734 Kbps
Width                            : 640 pixels
Height                           : 480 pixels
Display aspect ratio             : 4/3
Frame rate                       : 24.000 fps
Resolution                       : 24 bits

Audio
Format                           : MPEG Audio
Format version                   : Version 1
Format profile                   : Layer 3
Codec ID                         : 55
Codec ID/Hint                    : MP3
Duration                         : 1h 32mn
Bit rate mode                    : Constant
Bit rate                         : 160 Kbps
Channel(s)                       : 2 channels
Sampling rate                    : 48.0 KHz
Resolution                       : 16 bits
Alignment                        : Aligned on interleaves



12-Î˜Î’ Î•Î Î™Î§Î•Î™Î¡Î—Î£Î— Î“Î—Î£ ÎœÎ‘Î”Î™Î‘Îœ

Format                           : MPEG-4 Visual
Format profile                   : Simple@L3
Format settings, BVOP            : No
Format settings, QPel            : No
Format settings, GMC             : No warppoints
Format settings, Matrix          : Default
Codec ID                         : XVID
Codec ID/Hint                    : XviD
Duration                         : 1h 31mn
Bit rate                         : 2 016 Kbps
Width                            : 720 pixels
Height                           : 560 pixels
Display aspect ratio             : 1.286
Frame rate                       : 25.000 fps
Resolution                       : 24 bits
Colorimetry                      : 4:2:0
Scan type                        : Progressive
Bits/(Pixel*Frame)               : 0.200
Stream size                      : 1.29 GiB (96%)
Writing library                  : XviD 1.1.2 (UTC 2006-11-01)

Audio
Format                           : MPEG Audio
Format version                   : Version 1
Format profile                   : Layer 3
Codec ID                         : 55
Codec ID/Hint                    : MP3
Duration                         : 1h 31mn
Bit rate mode                    : Constant
Bit rate                         : 64.0 Kbps
Channel(s)                       : 2 channels
Sampling rate                    : 48.0 KHz
Resolution                       : 16 bits
Stream size                      : 41.9 MiB (3%)
Alignment                        : Aligned on interleaves
Interleave, duration             : 24 ms (0.60 video frame)




13-Î˜Î’ Î¦Î‘Î›Î‘ÎšÎ¡ÎŸÎ£ Î Î¡Î‘ÎšÎ¤ÎŸÎ¡


Format                           : xvid
Codec ID                         : xvid
Duration                         : 3h 34mn
Bit rate                         : 1 074 Kbps
Width                            : 704 pixels
Height                           : 576 pixels
Display aspect ratio             : 1.222
Frame rate                       : 25.000 fps
Resolution                       : 24 bits
Bits/(Pixel*Frame)               : 0.106
Stream size                      : 1.61 GiB (97%)

Audio
Format                           : MPEG Audio
Format version                   : Version 1
Format profile                   : Layer 3
Codec ID                         : 55
Codec ID/Hint                    : MP3
Duration                         : 1h 24mn
Bit rate mode                    : Constant
Bit rate                         : 64.0 Kbps
Channel(s)                       : 2 channels
Sampling rate                    : 44.1 KHz
Resolution                       : 16 bits
Stream size                      : 38.9 MiB (2%)
Alignment                        : Aligned on interleaves
Interleave, duration             : 26 ms (0.65 video frame)


14-ÎœÎ—Î Î•Î™Î”Î‘Î¤Î• Î¤ÎŸÎ Î Î‘ÎÎ‘Î—

Format                           : MPEG-4 Visual
Format profile                   : Simple@L3
Format settings, BVOP            : No
Format settings, QPel            : No
Format settings, GMC             : No warppoints
Format settings, Matrix          : Default
Codec ID                         : XVID
Codec ID/Hint                    : XviD
Duration                         : 1h 15mn
Bit rate                         : 2 007 Kbps
Width                            : 720 pixels
Height                           : 558 pixels
Display aspect ratio             : 1.290
Frame rate                       : 25.000 fps
Resolution                       : 24 bits
Colorimetry                      : 4:2:0
Scan type                        : Progressive
Bits/(Pixel*Frame)               : 0.200
Stream size                      : 1.05 GiB (96%)
Writing library                  : XviD 1.1.2 (UTC 2006-11-01)

Audio
Format                           : MPEG Audio
Format version                   : Version 1
Format profile                   : Layer 3
Codec ID                         : 55
Codec ID/Hint                    : MP3
Duration                         : 1h 15mn
Bit rate mode                    : Constant
Bit rate                         : 64.0 Kbps
Channel(s)                       : 2 channels
Sampling rate                    : 48.0 KHz
Resolution                       : 16 bits
Stream size                      : 34.4 MiB (3%)
Alignment                        : Aligned on interleaves
Interleave, duration             : 24 ms (0.60 video frame)




15-ÎŸ Î—Î›Î™Î‘Î£ Î¤ÎŸÎ¥ 16ÎŸÎ¥

Format                           : MPEG-4 Visual
Format profile                   : Streaming Video@L1
Format settings, BVOP            : Yes
Format settings, QPel            : No
Format settings, GMC             : No warppoints
Format settings, Matrix          : Custom
Codec ID                         : XVID
Codec ID/Hint                    : XviD
Duration                         : 1h 22mn
Bit rate                         : 1 325 Kbps
Width                            : 640 pixels
Height                           : 480 pixels
Display aspect ratio             : 4/3
Frame rate                       : 25.000 fps
Resolution                       : 24 bits
Colorimetry                      : 4:2:0
Scan type                        : Progressive
Bits/(Pixel*Frame)               : 0.172
Stream size                      : 782 MiB (87%)
Writing library                  : XviD 1.1.2 (UTC 2006-11-01)

Audio
Format                           : AC-3
Format/Info                      : Audio Coding 3
Codec ID                         : 2000
Duration                         : 1h 22mn
Bit rate mode                    : Constant
Bit rate                         : 192 Kbps
Channel(s)                       : 2 channels
Channel positions                : L R
Sampling rate                    : 48.0 KHz
Stream size                      : 113 MiB (13%)
Alignment                        : Aligned on interleaves
Interleave, duration             : 96 ms (2.40 video frames)
Interleave, preload duration     : 96 ms



16-ÎŸ Î˜Î‘ÎÎ‘Î£Î—Î£ Î— Î™ÎŸÎ¥Î›Î™Î•Î¤Î‘ ÎšÎ‘Î™ Î¤Î‘ Î›ÎŸÎ¥ÎšÎ‘ÎÎ™ÎšÎ‘

Format                           : MPEG-4 Visual
Format profile                   : Streaming Video@L1
Format settings, BVOP            : Yes
Format settings, QPel            : No
Format settings, GMC             : No warppoints
Format settings, Matrix          : Custom
Codec ID                         : XVID
Codec ID/Hint                    : XviD
Duration                         : 1h 18mn
Bit rate                         : 1 405 Kbps
Width                            : 640 pixels
Height                           : 480 pixels
Display aspect ratio             : 4/3
Frame rate                       : 25.000 fps
Resolution                       : 24 bits
Colorimetry                      : 4:2:0
Scan type                        : Progressive
Bits/(Pixel*Frame)               : 0.183
Stream size                      : 788 MiB (88%)
Writing library                  : XviD 1.1.2 (UTC 2006-11-01)

Audio
Format                           : AC-3
Format/Info                      : Audio Coding 3
Codec ID                         : 2000
Duration                         : 1h 18mn
Bit rate mode                    : Constant
Bit rate                         : 192 Kbps
Channel(s)                       : 2 channels
Channel positions                : L R
Sampling rate                    : 48.0 KHz
Stream size                      : 108 MiB (12%)
Alignment                        : Aligned on interleaves
Interleave, duration             : 96 ms (2.40 video frames)
Interleave, preload duration     : 96 ms



17-ÎŸ Î˜Î‘ÎÎ‘Î£Î—Î£ Î£Î¤Î—Î Î§Î©Î¡Î‘ Î¤Î—Î£ Î£Î¦Î‘Î›Î™Î‘Î¡Î‘Î£

Format                           : MPEG-4 Visual
Format profile                   : Streaming Video@L1
Format settings, BVOP            : Yes
Format settings, QPel            : No
Format settings, GMC             : No warppoints
Format settings, Matrix          : Custom
Codec ID                         : XVID
Codec ID/Hint                    : XviD
Duration                         : 1h 24mn
Bit rate                         : 1 023 Kbps
Width                            : 512 pixels
Height                           : 384 pixels
Display aspect ratio             : 4/3
Frame rate                       : 25.000 fps
Resolution                       : 24 bits
Colorimetry                      : 4:2:0
Scan type                        : Progressive
Bits/(Pixel*Frame)               : 0.208
Stream size                      : 618 MiB (88%)
Writing library                  : XviD 1.2.0.dev47 (UTC 2006-11-01)

Audio
Format                           : MPEG Audio
Format version                   : Version 1
Format profile                   : Layer 3
Codec ID                         : 55
Codec ID/Hint                    : MP3
Duration                         : 1h 24mn
Bit rate mode                    : Constant
Bit rate                         : 128 Kbps
Minimum bit rate                 : 128 Kbps
Channel(s)                       : 2 channels
Sampling rate                    : 44.1 KHz
Resolution                       : 16 bits
Stream size                      : 77.3 MiB (11%)
Alignment                        : Split accross interleaves
Interleave, duration             : 80 ms (2.00 video frames)
Interleave, preload duration     : 500 ms
Writing library                  : LAME3.97 
Encoding settings                : CBR



18-ÎŸ Î˜Î•Î™ÎŸÎ£ Î‘Î ÎŸ Î¤ÎŸÎ ÎšÎ‘ÎÎ‘Î”Î‘

Format                           : MPEG-4 Visual
Format profile                   : Streaming Video@L1
Format settings, BVOP            : Yes
Format settings, QPel            : No
Format settings, GMC             : No warppoints
Format settings, Matrix          : Default
Muxing mode                      : Packed bitstream
Codec ID                         : XVID
Codec ID/Hint                    : XviD
Duration                         : 1h 22mn
Bit rate                         : 1 118 Kbps
Width                            : 720 pixels
Height                           : 528 pixels
Display aspect ratio             : 4/3
Frame rate                       : 25.000 fps
Resolution                       : 24 bits
Colorimetry                      : 4:2:0
Scan type                        : Progressive
Bits/(Pixel*Frame)               : 0.118
Stream size                      : 660 MiB (89%)
Title                            : DVD3VIDEO
Writing library                  : XviD 1.0.1 (UTC 2004-06-05)

Audio
Format                           : MPEG Audio
Format version                   : Version 1
Format profile                   : Layer 3
Codec ID                         : 55
Codec ID/Hint                    : MP3
Bit rate mode                    : Constant
Bit rate                         : 128 Kbps
Channel(s)                       : 2 channels
Sampling rate                    : 48.0 KHz
Resolution                       : 16 bits
Stream size                      : 75.6 MiB (10%)




19-ÎŸ ÎšÎ‘Î¤Î‘Î¦Î•Î¡Î¤Î–Î—Î£

Format                           : MPEG-4 Visual
Format profile                   : Simple@L3
Format settings, BVOP            : No
Format settings, QPel            : No
Format settings, GMC             : No warppoints
Format settings, Matrix          : Default
Codec ID                         : XVID
Codec ID/Hint                    : XviD
Duration                         : 1h 10mn
Bit rate                         : 2 014 Kbps
Width                            : 720 pixels
Height                           : 560 pixels
Display aspect ratio             : 1.286
Frame rate                       : 25.000 fps
Resolution                       : 24 bits
Colorimetry                      : 4:2:0
Scan type                        : Progressive
Bits/(Pixel*Frame)               : 0.200
Stream size                      : 1 013 MiB (96%)
Writing library                  : XviD 1.1.2 (UTC 2006-11-01)

Audio
Format                           : MPEG Audio
Format version                   : Version 1
Format profile                   : Layer 3
Codec ID                         : 55
Codec ID/Hint                    : MP3
Duration                         : 1h 10mn
Bit rate mode                    : Constant
Bit rate                         : 64.0 Kbps
Channel(s)                       : 2 channels
Sampling rate                    : 48.0 KHz
Resolution                       : 16 bits
Stream size                      : 32.2 MiB (3%)
Alignment                        : Aligned on interleaves
Interleave, duration             : 24 ms (0.60 video frame)



20-ÎŸ ÎœÎ—Î¤Î¡ÎŸÎ£ ÎšÎ‘Î™ ÎŸ ÎœÎ—Î¤Î¡ÎŸÎ¥Î£Î—Î£

Format                           : MPEG-4 Visual
Format profile                   : Simple@L3
Format settings, BVOP            : No
Format settings, QPel            : No
Format settings, GMC             : No warppoints
Format settings, Matrix          : Default
Codec ID                         : XVID
Codec ID/Hint                    : XviD
Duration                         : 1h 22mn
Bit rate                         : 2 010 Kbps
Width                            : 640 pixels
Height                           : 360 pixels
Display aspect ratio             : 16/9
Frame rate                       : 25.000 fps
Resolution                       : 24 bits
Colorimetry                      : 4:2:0
Scan type                        : Progressive
Bits/(Pixel*Frame)               : 0.349
Stream size                      : 1.16 GiB (94%)
Writing library                  : ZJMedia MPEG Encoder

Audio
Format                           : MPEG Audio
Format version                   : Version 1
Format profile                   : Layer 3
Codec ID                         : 55
Codec ID/Hint                    : MP3
Duration                         : 1h 22mn
Bit rate mode                    : Constant
Bit rate                         : 128 Kbps
Channel(s)                       : 2 channels
Sampling rate                    : 44.1 KHz

21-ÎŸ Î Î‘Î›Î‘Î’ÎŸÎ£ ÎšÎŸÎ£ÎœÎŸÎ£ Î¤ÎŸÎ¥ Î˜Î‘ÎÎ‘Î£Î—


Format                           : MPEG-4 Visual
Format profile                   : Simple@L3
Format settings, BVOP            : Yes
Format settings, QPel            : No
Format settings, GMC             : No warppoints
Format settings, Matrix          : Default
Codec ID                         : XVID
Codec ID/Hint                    : XviD
Duration                         : 1h 27mn
Bit rate                         : 2 001 Kbps
Width                            : 720 pixels
Height                           : 480 pixels
Display aspect ratio             : 1.500
Frame rate                       : 30.000 fps
Standard                         : NTSC
Resolution                       : 24 bits
Scan type                        : Progressive
Bits/(Pixel*Frame)               : 0.193
Stream size                      : 1.23 GiB (91%)

Audio
Format                           : MPEG Audio
Format version                   : Version 1
Format profile                   : Layer 3
Codec ID                         : 55
Codec ID/Hint                    : MP3
Duration                         : 1h 27mn
Bit rate mode                    : Constant
Bit rate                         : 192 Kbps
Channel(s)                       : 2 channels
Sampling rate                    : 48.0 KHz
Resolution                       : 16 bits
Stream size                      : 121 MiB (9%)
Alignment                        : Aligned on interleaves
Interleave, duration             : 24 ms (0.72 video frame)
Interleave, preload duration     : 24 ms

22-ÎŸ Î Î‘Î Î‘Î¤Î¡Î•Î§Î‘Î£

Format                           : MPEG-4 Visual
Format profile                   : Simple@L3
Format settings, BVOP            : No
Format settings, QPel            : No
Format settings, GMC             : No warppoints
Format settings, Matrix          : Default
Codec ID                         : XVID
Codec ID/Hint                    : XviD
Duration                         : 1h 28mn
Bit rate                         : 2 016 Kbps
Width                            : 720 pixels
Height                           : 560 pixels
Display aspect ratio             : 1.286
Frame rate                       : 25.000 fps
Resolution                       : 24 bits
Colorimetry                      : 4:2:0
Scan type                        : Progressive
Bits/(Pixel*Frame)               : 0.200
Stream size                      : 1.25 GiB (96%)
Writing library                  : XviD 1.1.2 (UTC 2006-11-01)

Audio
Format                           : MPEG Audio
Format version                   : Version 1
Format profile                   : Layer 3
Codec ID                         : 55
Codec ID/Hint                    : MP3
Duration                         : 1h 28mn
Bit rate mode                    : Constant
Bit rate                         : 64.0 Kbps
Channel(s)                       : 2 channels
Sampling rate                    : 48.0 KHz
Resolution                       : 16 bits
Stream size                      : 40.6 MiB (3%)
Alignment                        : Aligned on interleaves
Interleave, duration             : 24 ms (0.60 video frame)




23-ÎŸÎ™ 900 Î¤Î—Î£ ÎœÎ‘Î¡Î™ÎÎ‘Î£

Format                           : MPEG-4 Visual
Format profile                   : Simple@L3
Format settings, BVOP            : Yes
Format settings, QPel            : No
Format settings, GMC             : No warppoints
Format settings, Matrix          : Default
Codec ID                         : XVID
Codec ID/Hint                    : XviD
Duration                         : 1h 20mn
Bit rate                         : 2 000 Kbps
Width                            : 720 pixels
Height                           : 480 pixels
Display aspect ratio             : 1.500
Frame rate                       : 30.000 fps
Standard                         : NTSC
Resolution                       : 24 bits
Scan type                        : Progressive
Bits/(Pixel*Frame)               : 0.193
Stream size                      : 1.12 GiB (91%)

Audio
Format                           : MPEG Audio
Format version                   : Version 1
Format profile                   : Layer 3
Codec ID                         : 55
Codec ID/Hint                    : MP3
Duration                         : 1h 20mn
Bit rate mode                    : Constant
Bit rate                         : 192 Kbps
Channel(s)                       : 2 channels
Sampling rate                    : 48.0 KHz
Resolution                       : 16 bits
Stream size                      : 110 MiB (9%)
Alignment                        : Aligned on interleaves
Interleave, duration             : 24 ms (0.72 video frame)
Interleave, preload duration     : 24 ms
Writing library                  : LAME3.97



24-ÎŸÎ™ÎšÎŸÎ“Î•ÎÎ•Î™Î‘ Î Î‘Î Î‘Î”ÎŸÎ ÎŸÎ¥Î›ÎŸÎ¥

Format                           : MPEG-4 Visual
Format profile                   : Simple@L3
Format settings, BVOP            : No
Format settings, QPel            : No
Format settings, GMC             : No warppoints
Format settings, Matrix          : Default
Codec ID                         : XVID
Codec ID/Hint                    : XviD
Duration                         : 1h 30mn
Bit rate                         : 2 014 Kbps
Width                            : 720 pixels
Height                           : 560 pixels
Display aspect ratio             : 1.286
Frame rate                       : 25.000 fps
Resolution                       : 24 bits
Colorimetry                      : 4:2:0
Scan type                        : Progressive
Bits/(Pixel*Frame)               : 0.200
Stream size                      : 1.27 GiB (96%)
Writing library                  : XviD 1.1.2 (UTC 2006-11-01)

Audio
Format                           : MPEG Audio
Format version                   : Version 1
Format profile                   : Layer 3
Codec ID                         : 55
Codec ID/Hint                    : MP3
Duration                         : 1h 30mn
Bit rate mode                    : Constant
Bit rate                         : 64.0 Kbps
Channel(s)                       : 2 channels
Sampling rate                    : 48.0 KHz
Resolution                       : 16 bits
Stream size                      : 41.2 MiB (3%)
Alignment                        : Aligned on interleaves
Interleave, duration             : 24 ms (0.60 video frame)





25-Î Î‘Î¡Î• ÎšÎŸÎ£ÎœÎ•

Format                           : MPEG-4 Visual
Format profile                   : Simple@L3
Format settings, BVOP            : No
Format settings, QPel            : No
Format settings, GMC             : No warppoints
Format settings, Matrix          : Default
Codec ID                         : XVID
Codec ID/Hint                    : XviD
Duration                         : 1h 23mn
Bit rate                         : 2 016 Kbps
Width                            : 720 pixels
Height                           : 560 pixels
Display aspect ratio             : 1.286
Frame rate                       : 25.000 fps
Resolution                       : 24 bits
Colorimetry                      : 4:2:0
Scan type                        : Progressive
Bits/(Pixel*Frame)               : 0.200
Stream size                      : 1.17 GiB (96%)
Writing library                  : XviD 1.1.2 (UTC 2006-11-01)

Audio
Format                           : MPEG Audio
Format version                   : Version 1
Format profile                   : Layer 3
Codec ID                         : 55
Codec ID/Hint                    : MP3
Duration                         : 1h 23mn
Bit rate mode                    : Constant
Bit rate                         : 64.0 Kbps
Channel(s)                       : 2 channels
Sampling rate                    : 48.0 KHz
Resolution                       : 16 bits
Stream size                      : 38.1 MiB (3%)
Alignment                        : Aligned on interleaves
Interleave, duration             : 24 ms (0.60 video frame)




26-Î ÎŸÎ™ÎŸÎ£ Î˜Î‘ÎÎ‘Î£Î—Î£

Format                           : MPEG-4 Visual
Format profile                   : Simple@L3
Format settings, BVOP            : No
Format settings, QPel            : No
Format settings, GMC             : No warppoints
Format settings, Matrix          : Default
Codec ID                         : XVID
Codec ID/Hint                    : XviD
Duration                         : 1h 21mn
Bit rate                         : 2 015 Kbps
Width                            : 720 pixels
Height                           : 552 pixels
Display aspect ratio             : 4/3
Frame rate                       : 25.000 fps
Resolution                       : 24 bits
Colorimetry                      : 4:2:0
Scan type                        : Progressive
Bits/(Pixel*Frame)               : 0.203
Stream size                      : 1.15 GiB (96%)
Writing library                  : XviD 1.1.2 (UTC 2006-11-01)

Audio
Format                           : MPEG Audio
Format version                   : Version 1
Format profile                   : Layer 3
Codec ID                         : 55
Codec ID/Hint                    : MP3
Duration                         : 1h 21mn
Bit rate mode                    : Constant
Bit rate                         : 64.0 Kbps
Channel(s)                       : 2 channels
Sampling rate                    : 48.0 KHz
Resolution                       : 16 bits
Stream size                      : 37.4 MiB (3%)
Alignment                        : Aligned on interleaves
Interleave, duration             : 24 ms (0.60 video frame)




27-Î ÎŸÎ™ÎŸÎ£ Î˜Î‘ÎÎ‘Î£Î—Î£

Format                           : MPEG-4 Visual
Format profile                   : Simple@L3
Format settings, BVOP            : No
Format settings, QPel            : No
Format settings, GMC             : No warppoints
Format settings, Matrix          : Default
Codec ID                         : XVID
Codec ID/Hint                    : XviD
Duration                         : 1h 21mn
Bit rate                         : 2 015 Kbps
Width                            : 720 pixels
Height                           : 552 pixels
Display aspect ratio             : 4/3
Frame rate                       : 25.000 fps
Resolution                       : 24 bits
Colorimetry                      : 4:2:0
Scan type                        : Progressive
Bits/(Pixel*Frame)               : 0.203
Stream size                      : 1.15 GiB (96%)
Writing library                  : XviD 1.1.2 (UTC 2006-11-01)

Audio
Format                           : MPEG Audio
Format version                   : Version 1
Format profile                   : Layer 3
Codec ID                         : 55
Codec ID/Hint                    : MP3
Duration                         : 1h 21mn
Bit rate mode                    : Constant
Bit rate                         : 64.0 Kbps
Channel(s)                       : 2 channels
Sampling rate                    : 48.0 KHz
Resolution                       : 16 bits
Stream size                      : 37.4 MiB (3%)
Alignment                        : Aligned on interleaves
Interleave, duration             : 24 ms (0.60 video frame)





28-Î ÎŸÎ›Î¥Î¤Î•Î§ÎÎ™Î¤Î—Î£ ÎšÎ‘Î™ Î•Î¡Î—ÎœÎŸÎ£Î Î™Î¤Î—Î£

Format                           : MPEG-4 Visual
Format profile                   : Simple@L1
Format settings, BVOP            : No
Format settings, QPel            : No
Format settings, GMC             : No warppoints
Format settings, Matrix          : Default
Codec ID                         : FMP4
Duration                         : 1h 15mn
Bit rate                         : 1 201 Kbps
Width                            : 704 pixels
Height                           : 576 pixels
Display aspect ratio             : 1.222
Frame rate                       : 25.000 fps
Resolution                       : 24 bits
Colorimetry                      : 4:2:0
Scan type                        : Progressive
Bits/(Pixel*Frame)               : 0.118
Stream size                      : 648 MiB (46%)
Writing library                  : Lavc51.40.4

Audio
Format                           : PCM
Format settings, Endianness      : Little
Format settings, Sign            : Unsigned
Codec ID                         : 1
Codec ID/Hint                    : Microsoft
Duration                         : 1h 15mn
Bit rate mode                    : Constant
Bit rate                         : 1 411.2 Kbps
Channel(s)                       : 2 channels
Sampling rate                    : 44.1 KHz
Resolution                       : 16 bits
Stream size                      : 762 MiB (54%)
Interleave, duration             : 40 ms (1.00 video frame)




29-Î£Î§ÎŸÎ›Î— Î“Î™Î‘ Î£Î©Î¦Î•Î¡Î™ÎÎ•Î£

Format                           : MPEG-4 Visual
Format profile                   : Simple@L3
Format settings, BVOP            : No
Format settings, QPel            : No
Format settings, GMC             : No warppoints
Format settings, Matrix          : Default
Codec ID                         : XVID
Codec ID/Hint                    : XviD
Duration                         : 1h 13mn
Bit rate                         : 2 007 Kbps
Width                            : 720 pixels
Height                           : 558 pixels
Display aspect ratio             : 1.290
Frame rate                       : 25.000 fps
Resolution                       : 24 bits
Colorimetry                      : 4:2:0
Scan type                        : Progressive
Bits/(Pixel*Frame)               : 0.200
Stream size                      : 1.03 GiB (96%)
Writing library                  : XviD 1.1.2 (UTC 2006-11-01)

Audio
Format                           : MPEG Audio
Format version                   : Version 1
Format profile                   : Layer 3
Codec ID                         : 55
Codec ID/Hint                    : MP3
Duration                         : 1h 13mn
Bit rate mode                    : Constant
Bit rate                         : 64.0 Kbps
Channel(s)                       : 2 channels
Sampling rate                    : 48.0 KHz
Resolution                       : 16 bits
Stream size                      : 33.5 MiB (3%)
Alignment                        : Aligned on interleaves
Interleave, duration             : 24 ms (0.60 video frame)




30-Î¤Î™ Î•ÎšÎ‘ÎÎ•Î£ Î£Î¤ÎŸÎ Î ÎŸÎ›Î•ÎœÎŸ Î˜Î‘ÎÎ‘Î£Î—


Format                           : MPEG-4 Visual
Format profile                   : Simple@L3
Format settings, BVOP            : Yes
Format settings, QPel            : No
Format settings, GMC             : No warppoints
Format settings, Matrix          : Default
Codec ID                         : XVID
Codec ID/Hint                    : XviD
Duration                         : 1h 19mn
Bit rate                         : 2 000 Kbps
Width                            : 720 pixels
Height                           : 480 pixels
Display aspect ratio             : 1.500
Frame rate                       : 30.000 fps
Standard                         : NTSC
Resolution                       : 24 bits
Scan type                        : Progressive
Bits/(Pixel*Frame)               : 0.193
Stream size                      : 1.11 GiB (91%)

Audio
Format                           : MPEG Audio
Format version                   : Version 1
Format profile                   : Layer 3
Codec ID                         : 55
Codec ID/Hint                    : MP3
Duration                         : 1h 19mn
Bit rate mode                    : Constant
Bit rate                         : 192 Kbps
Channel(s)                       : 2 channels
Sampling rate                    : 48.0 KHz
Resolution                       : 16 bits
Stream size                      : 109 MiB (9%)
Alignment                        : Aligned on interleaves
Interleave, duration             : 24 ms (0.72 video frame)
Interleave, preload duration     : 48 ms
Writing library                  : LAME3.97


31-Î¤ÎŸ Î”Î¥Î”Î™ÎœÎŸ Î¤Î—Î£ Î£Î¥ÎœÎ¦Î©Î¡Î‘Î£

Format                           : MPEG-4 Visual
Format profile                   : Streaming Video@L1
Format settings, BVOP            : Yes
Format settings, QPel            : No
Format settings, GMC             : No warppoints
Format settings, Matrix          : Default
Muxing mode                      : Packed bitstream
Codec ID                         : XVID
Codec ID/Hint                    : XviD
Duration                         : 1h 31mn
Bit rate                         : 933 Kbps
Width                            : 512 pixels
Height                           : 384 pixels
Display aspect ratio             : 4/3
Frame rate                       : 25.000 fps
Resolution                       : 24 bits
Colorimetry                      : 4:2:0
Scan type                        : Progressive
Bits/(Pixel*Frame)               : 0.190
Stream size                      : 609 MiB (87%)
Writing library                  : XviD 1.2.0.dev47 (UTC 2006-11-01)

Audio
Format                           : MPEG Audio
Format version                   : Version 1
Format profile                   : Layer 3
Codec ID                         : 55
Codec ID/Hint                    : MP3
Duration                         : 1h 31mn
Bit rate mode                    : Constant
Bit rate                         : 128 Kbps
Channel(s)                       : 2 channels


32-Î¤ÎŸ Î¤Î¥Î§Î•Î¡ÎŸ Î Î‘ÎÎ¤Î•Î›ÎŸÎÎ™

Format                           : MPEG-4 Visual
Format profile                   : Simple@L3
Format settings, BVOP            : No
Format settings, QPel            : No
Format settings, GMC             : No warppoints
Format settings, Matrix          : Default
Codec ID                         : XVID
Codec ID/Hint                    : XviD
Duration                         : 1h 9mn
Bit rate                         : 1 198 Kbps
Width                            : 640 pixels
Height                           : 480 pixels
Display aspect ratio             : 4/3
Frame rate                       : 25.000 fps
Resolution                       : 24 bits
Colorimetry                      : 4:2:0
Scan type                        : Progressive
Bits/(Pixel*Frame)               : 0.156
Stream size                      : 593 MiB (90%)
Writing library                  : Magic0432

Audio
Format                           : MPEG Audio
Format version                   : Version 1
Format profile                   : Layer 3
Codec ID                         : 55
Codec ID/Hint                    : MP3
Duration                         : 1h 9mn
Bit rate mode                    : Constant
Bit rate                         : 128 Kbps
Channel(s)                       : 2 channels
Sampling rate                    : 44.1 KHz
Resolution                       : 16 bits
Stream size                      : 63.4 MiB (10%)
Alignment                        : Aligned on interleaves
Interleave, duration             : 26 ms (0.65 video frame)




33-Î¤Î¡Î•Î›Î›ÎŸÎ£ ÎšÎ‘Î™ Î Î‘Î£Î—Î£ Î•Î›Î›Î‘Î”ÎŸÎ£

Format                           : MPEG-4 Visual
Format profile                   : Simple@L3
Format settings, BVOP            : Yes
Format settings, QPel            : No
Format settings, GMC             : No warppoints
Format settings, Matrix          : Default
Muxing mode                      : Packed bitstream
Codec ID                         : XVID
Codec ID/Hint                    : XviD
Duration                         : 1h 28mn
Bit rate                         : 1 094 Kbps
Width                            : 640 pixels
Height                           : 480 pixels
Display aspect ratio             : 4/3
Frame rate                       : 25.000 fps
Resolution                       : 24 bits
Colorimetry                      : 4:2:0
Scan type                        : Progressive
Bits/(Pixel*Frame)               : 0.142
Stream size                      : 692 MiB (84%)
Writing library                  : XviD 1.1.0 Beta1 (UTC 2005-01-16)

Audio
Format                           : MPEG Audio
Format version                   : Version 1
Format profile                   : Layer 3
Codec ID                         : 55
Codec ID/Hint                    : MP3
Duration                         : 1h 28mn
Bit rate mode                    : Constant
Bit rate                         : 192 Kbps
Channel(s)                       : 2 channels
Sampling rate                    : 44.1 KHz
Resolution                       : 16 bits
Video delay                      : 26ms
Stream size                      : 121 MiB (15%)
Alignment                        : Split accross interleaves
Interleave, duration             : 40 ms (1.00 video frame)
Title                            : Audio Stream



34-Î¤Î¡Î•Î›Î›ÎŸÎ£ Î Î‘Î›Î‘Î’ÎŸÎ£ ÎšÎ‘Î™ Î’Î•Î“Î“ÎŸÎ£


Format                           : MPEG-4 Visual
Format profile                   : Simple@L3
Format settings, BVOP            : No
Format settings, QPel            : No
Format settings, GMC             : No warppoints
Format settings, Matrix          : Default
Codec ID                         : XVID
Codec ID/Hint                    : XviD
Duration                         : 1h 23mn
Bit rate                         : 2 016 Kbps
Width                            : 720 pixels
Height                           : 560 pixels
Display aspect ratio             : 1.286
Frame rate                       : 25.000 fps
Resolution                       : 24 bits
Colorimetry                      : 4:2:0
Scan type                        : Progressive
Bits/(Pixel*Frame)               : 0.200
Stream size                      : 1.17 GiB (96%)
Writing library                  : XviD 1.1.2 (UTC 2006-11-01)

Audio
Format                           : MPEG Audio
Format version                   : Version 1
Format profile                   : Layer 3
Codec ID                         : 55
Codec ID/Hint                    : MP3
Duration                         : 1h 23mn
Bit rate mode                    : Constant
Bit rate                         : 64.0 Kbps
Channel(s)                       : 2 channels
Sampling rate                    : 48.0 KHz
Resolution                       : 16 bits
Stream size                      : 38.1 MiB (3%)
Alignment                        : Aligned on interleaves
Interleave, duration             : 24 ms (0.60 video frame)



35-Î¤Î¥Î¦Î›Î‘ ÎÎ‘ Î•Î§Î•Î™ MARLON BRANDO

Format                           : MPEG-4 Visual
Format profile                   : Simple@L3
Format settings, BVOP            : No
Format settings, QPel            : No
Format settings, GMC             : No warppoints
Format settings, Matrix          : Default
Codec ID                         : XVID
Codec ID/Hint                    : XviD
Duration                         : 1h 12mn
Bit rate                         : 2 001 Kbps
Width                            : 720 pixels
Height                           : 556 pixels
Display aspect ratio             : 1.295
Frame rate                       : 25.000 fps
Resolution                       : 24 bits
Colorimetry                      : 4:2:0
Scan type                        : Progressive
Bits/(Pixel*Frame)               : 0.200
Stream size                      : 1.01 GiB (96%)
Writing library                  : XviD 1.1.2 (UTC 2006-11-01)

Audio
Format                           : MPEG Audio
Format version                   : Version 1
Format profile                   : Layer 3
Codec ID                         : 55
Codec ID/Hint                    : MP3
Duration                         : 1h 12mn
Bit rate mode                    : Constant
Bit rate                         : 64.0 Kbps
Channel(s)                       : 2 channels
Sampling rate                    : 48.0 KHz
Resolution                       : 16 bits
Stream size                      : 33.1 MiB (3%)
Alignment                        : Aligned on interleaves
Interleave, duration             : 24 ms (0.60 video frame)



36-Î¨Î—Î›Î‘ Î¤Î‘ Î§Î•Î¡Î™Î‘ Î§Î™Î¤Î›Î•Î¡

Format                           : MPEG-4 Visual
Format profile                   : Streaming Video@L1
Format settings, BVOP            : Yes
Format settings, QPel            : No
Format settings, GMC             : No warppoints
Format settings, Matrix          : Custom
Codec ID                         : XVID
Codec ID/Hint                    : XviD
Duration                         : 1h 16mn
Bit rate                         : 1 412 Kbps
Width                            : 640 pixels
Height                           : 480 pixels
Display aspect ratio             : 4/3
Frame rate                       : 25.000 fps
Resolution                       : 24 bits
Colorimetry                      : 4:2:0
Scan type                        : Progressive
Bits/(Pixel*Frame)               : 0.184
Stream size                      : 776 MiB (88%)
Writing library                  : XviD 1.2.0.dev47 (UTC 2006-11-01)

Audio
Format                           : AC-3
Format/Info                      : Audio Coding 3
Codec ID                         : 2000
Duration                         : 1h 16mn
Bit rate mode                    : Constant
Bit rate                         : 192 Kbps
Channel(s)                       : 2 channels
Channel positions                : L R
Sampling rate                    : 48.0 KHz
Stream size                      : 106 MiB (12%)
Alignment                        : Aligned on interleaves
Interleave, duration             : 96 ms (2.40 video frames)
Interleave, preload duration     : 96 ms

